<?xml version="1.0" encoding="UTF-8" standalone="no"?>
<svg width="284.339mm" height="171.45mm"
 viewBox="0 0 806 486"
 xmlns="http://www.w3.org/2000/svg" xmlns:xlink="http://www.w3.org/1999/xlink" version="1.1">
<title>Qt SVG Document</title>
<desc>MATLAB, The MathWorks, Inc. Version 26.1.0.3234472 R2026a Update 1</desc>
<defs>
</defs>
<g fill="none" stroke="black" stroke-width="1" fill-rule="evenodd" stroke-linecap="square" stroke-linejoin="bevel" >

<g fill="#000000" fill-opacity="1" stroke="none" transform="matrix(0.75,0,0,0.75,0,0)"
font-family="Segoe UI" font-size="9" font-weight="400" font-style="normal" 
>
<path vector-effect="none" fill-rule="evenodd" d="M0,0 L1075,0 L1075,648 L0,648 L0,0"/>
</g>

<g fill="#d9d9d9" fill-opacity="1" stroke="#d9d9d9" stroke-opacity="1" stroke-width="1" stroke-linecap="square" stroke-linejoin="bevel" transform="matrix(0.75,0,0,0.75,350.739,19.3938)"
font-family="Helvetica" font-size="10" font-weight="400" font-style="normal" 
>
<text fill="#d9d9d9" fill-opacity="1" stroke="none" xml:space="preserve" x="0" y="0" font-family="Helvetica" font-size="10" font-weight="400" font-style="normal" 
 >Diagrama de Bode - Filtro Passa-alta</text>
</g>

<g fill="#d9d9d9" fill-opacity="1" stroke="#d9d9d9" stroke-opacity="1" stroke-width="1" stroke-linecap="square" stroke-linejoin="bevel" transform="matrix(0.75,0,0,0.75,388.239,455.613)"
font-family="Helvetica" font-size="10" font-weight="400" font-style="normal" 
>
<text fill="#d9d9d9" fill-opacity="1" stroke="none" xml:space="preserve" x="0" y="0" font-family="Helvetica" font-size="10" font-weight="400" font-style="normal" 
 >Frequency (Hz)</text>
</g>

<g fill="#121212" fill-opacity="1" stroke="none" transform="matrix(7.5e-05,0,0,7.5e-05,0,0)"
font-family="Helvetica" font-size="10" font-weight="400" font-style="normal" 
>
<path vector-effect="none" fill-rule="evenodd" d="M1.33e+06,490000 L1.33e+06,2.9e+06 L9.72e+06,2.9e+06 L9.72e+06,490000 L1.33e+06,490000"/>
</g>

<g fill="#ffffff" fill-opacity="0.25098" stroke="#ffffff" stroke-opacity="0.25098" stroke-dasharray="1,3" stroke-dashoffset="0" stroke-width="0.666667" stroke-linecap="butt" stroke-linejoin="round" transform="matrix(0.75,0,0,0.75,0,0)"
font-family="Helvetica" font-size="10" font-weight="400" font-style="normal" 
>
<polyline fill="none" vector-effect="none" points="189.125,290 189.125,49 " />
<polyline fill="none" vector-effect="none" points="221.957,290 221.957,49 " />
<polyline fill="none" vector-effect="none" points="245.251,290 245.251,49 " />
<polyline fill="none" vector-effect="none" points="263.319,290 263.319,49 " />
<polyline fill="none" vector-effect="none" points="278.082,290 278.082,49 " />
<polyline fill="none" vector-effect="none" points="290.564,290 290.564,49 " />
<polyline fill="none" vector-effect="none" points="301.376,290 301.376,49 " />
<polyline fill="none" vector-effect="none" points="310.913,290 310.913,49 " />
<polyline fill="none" vector-effect="none" points="375.57,290 375.57,49 " />
<polyline fill="none" vector-effect="none" points="408.401,290 408.401,49 " />
<polyline fill="none" vector-effect="none" points="431.695,290 431.695,49 " />
<polyline fill="none" vector-effect="none" points="449.764,290 449.764,49 " />
<polyline fill="none" vector-effect="none" points="464.526,290 464.526,49 " />
<polyline fill="none" vector-effect="none" points="477.008,290 477.008,49 " />
<polyline fill="none" vector-effect="none" points="487.821,290 487.821,49 " />
<polyline fill="none" vector-effect="none" points="497.358,290 497.358,49 " />
<polyline fill="none" vector-effect="none" points="562.014,290 562.014,49 " />
<polyline fill="none" vector-effect="none" points="594.845,290 594.845,49 " />
<polyline fill="none" vector-effect="none" points="618.14,290 618.14,49 " />
<polyline fill="none" vector-effect="none" points="636.208,290 636.208,49 " />
<polyline fill="none" vector-effect="none" points="650.971,290 650.971,49 " />
<polyline fill="none" vector-effect="none" points="663.453,290 663.453,49 " />
<polyline fill="none" vector-effect="none" points="674.265,290 674.265,49 " />
<polyline fill="none" vector-effect="none" points="683.802,290 683.802,49 " />
<polyline fill="none" vector-effect="none" points="748.459,290 748.459,49 " />
<polyline fill="none" vector-effect="none" points="781.29,290 781.29,49 " />
<polyline fill="none" vector-effect="none" points="804.584,290 804.584,49 " />
<polyline fill="none" vector-effect="none" points="822.652,290 822.652,49 " />
<polyline fill="none" vector-effect="none" points="837.415,290 837.415,49 " />
<polyline fill="none" vector-effect="none" points="849.897,290 849.897,49 " />
<polyline fill="none" vector-effect="none" points="860.709,290 860.709,49 " />
<polyline fill="none" vector-effect="none" points="870.247,290 870.247,49 " />
<polyline fill="none" vector-effect="none" points="934.903,290 934.903,49 " />
<polyline fill="none" vector-effect="none" points="967.734,290 967.734,49 " />
</g>

<g fill="#ffffff" fill-opacity="0.25098" stroke="#ffffff" stroke-opacity="0.25098" stroke-width="0.666667" stroke-linecap="butt" stroke-linejoin="round" transform="matrix(0.75,0,0,0.75,0,0)"
font-family="Helvetica" font-size="10" font-weight="400" font-style="normal" 
>
<polyline fill="none" vector-effect="none" points="133,290 133,49 " />
<polyline fill="none" vector-effect="none" points="319.444,290 319.444,49 " />
<polyline fill="none" vector-effect="none" points="505.889,290 505.889,49 " />
<polyline fill="none" vector-effect="none" points="692.333,290 692.333,49 " />
<polyline fill="none" vector-effect="none" points="878.778,290 878.778,49 " />
<polyline fill="none" vector-effect="none" points="972,290 133,290 " />
<polyline fill="none" vector-effect="none" points="972,236.444 133,236.444 " />
<polyline fill="none" vector-effect="none" points="972,182.889 133,182.889 " />
<polyline fill="none" vector-effect="none" points="972,129.333 133,129.333 " />
<polyline fill="none" vector-effect="none" points="972,75.7778 133,75.7778 " />
</g>

<g fill="#d9d9d9" fill-opacity="1" stroke="#d9d9d9" stroke-opacity="1" stroke-width="0.666667" stroke-linecap="square" stroke-linejoin="round" transform="matrix(0.75,0,0,0.75,0,0)"
font-family="Helvetica" font-size="10" font-weight="400" font-style="normal" 
>
<polyline fill="none" vector-effect="none" points="133,290 972,290 " />
<polyline fill="none" vector-effect="none" points="133,49 972,49 " />
<polyline fill="none" vector-effect="none" points="133,290 133,281.61 " />
<polyline fill="none" vector-effect="none" points="319.444,290 319.444,281.61 " />
<polyline fill="none" vector-effect="none" points="505.889,290 505.889,281.61 " />
<polyline fill="none" vector-effect="none" points="692.333,290 692.333,281.61 " />
<polyline fill="none" vector-effect="none" points="878.778,290 878.778,281.61 " />
<polyline fill="none" vector-effect="none" points="133,49 133,57.39 " />
<polyline fill="none" vector-effect="none" points="319.444,49 319.444,57.39 " />
<polyline fill="none" vector-effect="none" points="505.889,49 505.889,57.39 " />
<polyline fill="none" vector-effect="none" points="692.333,49 692.333,57.39 " />
<polyline fill="none" vector-effect="none" points="878.778,49 878.778,57.39 " />
<polyline fill="none" vector-effect="none" points="133,290 133,285.805 " />
<polyline fill="none" vector-effect="none" points="189.125,290 189.125,285.805 " />
<polyline fill="none" vector-effect="none" points="221.957,290 221.957,285.805 " />
<polyline fill="none" vector-effect="none" points="245.251,290 245.251,285.805 " />
<polyline fill="none" vector-effect="none" points="263.319,290 263.319,285.805 " />
<polyline fill="none" vector-effect="none" points="278.082,290 278.082,285.805 " />
<polyline fill="none" vector-effect="none" points="290.564,290 290.564,285.805 " />
<polyline fill="none" vector-effect="none" points="301.376,290 301.376,285.805 " />
<polyline fill="none" vector-effect="none" points="310.913,290 310.913,285.805 " />
<polyline fill="none" vector-effect="none" points="319.444,290 319.444,285.805 " />
<polyline fill="none" vector-effect="none" points="375.57,290 375.57,285.805 " />
<polyline fill="none" vector-effect="none" points="408.401,290 408.401,285.805 " />
<polyline fill="none" vector-effect="none" points="431.695,290 431.695,285.805 " />
<polyline fill="none" vector-effect="none" points="449.764,290 449.764,285.805 " />
<polyline fill="none" vector-effect="none" points="464.526,290 464.526,285.805 " />
<polyline fill="none" vector-effect="none" points="477.008,290 477.008,285.805 " />
<polyline fill="none" vector-effect="none" points="487.821,290 487.821,285.805 " />
<polyline fill="none" vector-effect="none" points="497.358,290 497.358,285.805 " />
<polyline fill="none" vector-effect="none" points="505.889,290 505.889,285.805 " />
<polyline fill="none" vector-effect="none" points="562.014,290 562.014,285.805 " />
<polyline fill="none" vector-effect="none" points="594.845,290 594.845,285.805 " />
<polyline fill="none" vector-effect="none" points="618.14,290 618.14,285.805 " />
<polyline fill="none" vector-effect="none" points="636.208,290 636.208,285.805 " />
<polyline fill="none" vector-effect="none" points="650.971,290 650.971,285.805 " />
<polyline fill="none" vector-effect="none" points="663.453,290 663.453,285.805 " />
<polyline fill="none" vector-effect="none" points="674.265,290 674.265,285.805 " />
<polyline fill="none" vector-effect="none" points="683.802,290 683.802,285.805 " />
<polyline fill="none" vector-effect="none" points="692.333,290 692.333,285.805 " />
<polyline fill="none" vector-effect="none" points="748.459,290 748.459,285.805 " />
<polyline fill="none" vector-effect="none" points="781.29,290 781.29,285.805 " />
<polyline fill="none" vector-effect="none" points="804.584,290 804.584,285.805 " />
<polyline fill="none" vector-effect="none" points="822.652,290 822.652,285.805 " />
<polyline fill="none" vector-effect="none" points="837.415,290 837.415,285.805 " />
<polyline fill="none" vector-effect="none" points="849.897,290 849.897,285.805 " />
<polyline fill="none" vector-effect="none" points="860.709,290 860.709,285.805 " />
<polyline fill="none" vector-effect="none" points="870.247,290 870.247,285.805 " />
<polyline fill="none" vector-effect="none" points="878.778,290 878.778,285.805 " />
<polyline fill="none" vector-effect="none" points="934.903,290 934.903,285.805 " />
<polyline fill="none" vector-effect="none" points="967.734,290 967.734,285.805 " />
<polyline fill="none" vector-effect="none" points="133,49 133,53.195 " />
<polyline fill="none" vector-effect="none" points="189.125,49 189.125,53.195 " />
<polyline fill="none" vector-effect="none" points="221.957,49 221.957,53.195 " />
<polyline fill="none" vector-effect="none" points="245.251,49 245.251,53.195 " />
<polyline fill="none" vector-effect="none" points="263.319,49 263.319,53.195 " />
<polyline fill="none" vector-effect="none" points="278.082,49 278.082,53.195 " />
<polyline fill="none" vector-effect="none" points="290.564,49 290.564,53.195 " />
<polyline fill="none" vector-effect="none" points="301.376,49 301.376,53.195 " />
<polyline fill="none" vector-effect="none" points="310.913,49 310.913,53.195 " />
<polyline fill="none" vector-effect="none" points="319.444,49 319.444,53.195 " />
<polyline fill="none" vector-effect="none" points="375.57,49 375.57,53.195 " />
<polyline fill="none" vector-effect="none" points="408.401,49 408.401,53.195 " />
<polyline fill="none" vector-effect="none" points="431.695,49 431.695,53.195 " />
<polyline fill="none" vector-effect="none" points="449.764,49 449.764,53.195 " />
<polyline fill="none" vector-effect="none" points="464.526,49 464.526,53.195 " />
<polyline fill="none" vector-effect="none" points="477.008,49 477.008,53.195 " />
<polyline fill="none" vector-effect="none" points="487.821,49 487.821,53.195 " />
<polyline fill="none" vector-effect="none" points="497.358,49 497.358,53.195 " />
<polyline fill="none" vector-effect="none" points="505.889,49 505.889,53.195 " />
<polyline fill="none" vector-effect="none" points="562.014,49 562.014,53.195 " />
<polyline fill="none" vector-effect="none" points="594.845,49 594.845,53.195 " />
<polyline fill="none" vector-effect="none" points="618.14,49 618.14,53.195 " />
<polyline fill="none" vector-effect="none" points="636.208,49 636.208,53.195 " />
<polyline fill="none" vector-effect="none" points="650.971,49 650.971,53.195 " />
<polyline fill="none" vector-effect="none" points="663.453,49 663.453,53.195 " />
<polyline fill="none" vector-effect="none" points="674.265,49 674.265,53.195 " />
<polyline fill="none" vector-effect="none" points="683.802,49 683.802,53.195 " />
<polyline fill="none" vector-effect="none" points="692.333,49 692.333,53.195 " />
<polyline fill="none" vector-effect="none" points="748.459,49 748.459,53.195 " />
<polyline fill="none" vector-effect="none" points="781.29,49 781.29,53.195 " />
<polyline fill="none" vector-effect="none" points="804.584,49 804.584,53.195 " />
<polyline fill="none" vector-effect="none" points="822.652,49 822.652,53.195 " />
<polyline fill="none" vector-effect="none" points="837.415,49 837.415,53.195 " />
<polyline fill="none" vector-effect="none" points="849.897,49 849.897,53.195 " />
<polyline fill="none" vector-effect="none" points="860.709,49 860.709,53.195 " />
<polyline fill="none" vector-effect="none" points="870.247,49 870.247,53.195 " />
<polyline fill="none" vector-effect="none" points="878.778,49 878.778,53.195 " />
<polyline fill="none" vector-effect="none" points="934.903,49 934.903,53.195 " />
<polyline fill="none" vector-effect="none" points="967.734,49 967.734,53.195 " />
<polyline fill="none" vector-effect="none" points="133,290 133,49 " />
<polyline fill="none" vector-effect="none" points="972,290 972,49 " />
<polyline fill="none" vector-effect="none" points="133,290 141.39,290 " />
<polyline fill="none" vector-effect="none" points="133,236.444 141.39,236.444 " />
<polyline fill="none" vector-effect="none" points="133,182.889 141.39,182.889 " />
<polyline fill="none" vector-effect="none" points="133,129.333 141.39,129.333 " />
<polyline fill="none" vector-effect="none" points="133,75.7778 141.39,75.7778 " />
<polyline fill="none" vector-effect="none" points="972,290 963.61,290 " />
<polyline fill="none" vector-effect="none" points="972,236.444 963.61,236.444 " />
<polyline fill="none" vector-effect="none" points="972,182.889 963.61,182.889 " />
<polyline fill="none" vector-effect="none" points="972,129.333 963.61,129.333 " />
<polyline fill="none" vector-effect="none" points="972,75.7778 963.61,75.7778 " />
</g>

<g fill="#d9d9d9" fill-opacity="1" stroke="#d9d9d9" stroke-opacity="1" stroke-width="1" stroke-linecap="square" stroke-linejoin="bevel" transform="matrix(0.75,0,0,0.75,86.9,220.125)"
font-family="Helvetica" font-size="10" font-weight="400" font-style="normal" 
>
<text fill="#d9d9d9" fill-opacity="1" stroke="none" xml:space="preserve" x="0" y="0" font-family="Helvetica" font-size="10" font-weight="400" font-style="normal" 
 >-80</text>
</g>

<g fill="#d9d9d9" fill-opacity="1" stroke="#d9d9d9" stroke-opacity="1" stroke-width="1" stroke-linecap="square" stroke-linejoin="bevel" transform="matrix(0.75,0,0,0.75,86.9,179.958)"
font-family="Helvetica" font-size="10" font-weight="400" font-style="normal" 
>
<text fill="#d9d9d9" fill-opacity="1" stroke="none" xml:space="preserve" x="0" y="0" font-family="Helvetica" font-size="10" font-weight="400" font-style="normal" 
 >-60</text>
</g>

<g fill="#d9d9d9" fill-opacity="1" stroke="#d9d9d9" stroke-opacity="1" stroke-width="1" stroke-linecap="square" stroke-linejoin="bevel" transform="matrix(0.75,0,0,0.75,86.9,139.792)"
font-family="Helvetica" font-size="10" font-weight="400" font-style="normal" 
>
<text fill="#d9d9d9" fill-opacity="1" stroke="none" xml:space="preserve" x="0" y="0" font-family="Helvetica" font-size="10" font-weight="400" font-style="normal" 
 >-40</text>
</g>

<g fill="#d9d9d9" fill-opacity="1" stroke="#d9d9d9" stroke-opacity="1" stroke-width="1" stroke-linecap="square" stroke-linejoin="bevel" transform="matrix(0.75,0,0,0.75,86.9,99.625)"
font-family="Helvetica" font-size="10" font-weight="400" font-style="normal" 
>
<text fill="#d9d9d9" fill-opacity="1" stroke="none" xml:space="preserve" x="0" y="0" font-family="Helvetica" font-size="10" font-weight="400" font-style="normal" 
 >-20</text>
</g>

<g fill="#d9d9d9" fill-opacity="1" stroke="#d9d9d9" stroke-opacity="1" stroke-width="1" stroke-linecap="square" stroke-linejoin="bevel" transform="matrix(0.75,0,0,0.75,93.65,59.4583)"
font-family="Helvetica" font-size="10" font-weight="400" font-style="normal" 
>
<text fill="#d9d9d9" fill-opacity="1" stroke="none" xml:space="preserve" x="0" y="0" font-family="Helvetica" font-size="10" font-weight="400" font-style="normal" 
 >0</text>
</g>

<g fill="#d9d9d9" fill-opacity="1" stroke="#d9d9d9" stroke-opacity="1" stroke-width="1" stroke-linecap="square" stroke-linejoin="bevel" transform="matrix(0,-0.75,0.75,0,83.65,153.75)"
font-family="Helvetica" font-size="10" font-weight="400" font-style="normal" 
>
<text fill="#d9d9d9" fill-opacity="1" stroke="none" xml:space="preserve" x="0" y="0" font-family="Helvetica" font-size="10" font-weight="400" font-style="normal" 
 >Magnitude (dB)</text>
</g>

<g fill="none" stroke="#268cdd" stroke-opacity="1" stroke-width="0.666667" stroke-linecap="butt" stroke-linejoin="round" transform="matrix(0.75,0,0,0.75,0,0)"
font-family="Helvetica" font-size="10" font-weight="400" font-style="normal" 
>
<polyline fill="none" vector-effect="none" points="189.125,290 245.251,257.756 257.921,250.477 270.592,243.198 283.262,235.919 295.933,228.64 308.603,221.361 321.274,214.082 333.945,206.802 346.615,199.523 359.286,192.245 371.956,184.966 384.627,177.688 397.297,170.41 409.968,163.134 422.638,155.86 435.309,148.591 447.979,141.332 460.65,134.088 473.32,126.876 485.991,119.721 498.662,112.671 511.332,105.809 524.003,99.2702 536.673,93.2611 549.344,88.0387 562.014,83.8387 574.685,80.7596 587.355,78.7028 600.026,77.4327 612.696,76.692 625.367,76.2756 638.037,76.0466 650.708,75.9223 663.379,75.8553 676.049,75.8193 688.72,75.8 701.39,75.7897 714.061,75.7841 726.731,75.7812 739.402,75.7796 752.072,75.7788 764.743,75.7783 777.413,75.778 790.084,75.7779 802.755,75.7779 815.425,75.7778 828.096,75.7778 840.766,75.7778 853.437,75.7778 866.107,75.7778 878.778,75.7778 972,75.7778 " />
</g>

<g fill="none" stroke="#f57729" stroke-opacity="1" stroke-width="0.666667" stroke-linecap="butt" stroke-linejoin="round" transform="matrix(0.75,0,0,0.75,0,0)"
font-family="Helvetica" font-size="10" font-weight="400" font-style="normal" 
>
<polyline fill="none" vector-effect="none" points="194.276,290 250.402,257.756 263.073,250.476 275.743,243.197 288.414,235.918 301.084,228.638 313.755,221.358 326.425,214.078 339.096,206.798 351.766,199.517 364.437,192.236 377.107,184.954 389.778,177.671 402.448,170.387 415.119,163.102 427.79,155.817 440.46,148.533 453.131,141.251 465.801,133.979 478.472,126.727 491.142,119.518 503.813,112.398 516.483,105.447 529.154,98.8041 541.824,92.6871 554.495,87.3786 567.165,83.145 579.836,80.0995 592.507,78.1288 605.177,76.9667 617.848,76.3304 630.518,76.0025 643.189,75.8436 655.859,75.7726 668.53,75.7454 681.2,75.7388 693.871,75.7411 706.541,75.7466 719.212,75.7526 731.883,75.7581 744.553,75.7627 757.224,75.7664 769.894,75.7693 782.565,75.7715 795.235,75.7731 807.906,75.7743 820.576,75.7752 833.247,75.7759 845.917,75.7764 858.588,75.7768 871.258,75.777 883.929,75.7772 972,75.7775 " />
</g>

<g fill="#121212" fill-opacity="1" stroke="none" transform="matrix(7.5e-05,0,0,7.5e-05,0,0)"
font-family="Helvetica" font-size="10" font-weight="400" font-style="normal" 
>
<path vector-effect="none" fill-rule="evenodd" d="M1.33e+06,3.35e+06 L1.33e+06,5.76e+06 L9.72e+06,5.76e+06 L9.72e+06,3.35e+06 L1.33e+06,3.35e+06"/>
</g>

<g fill="#ffffff" fill-opacity="0.25098" stroke="#ffffff" stroke-opacity="0.25098" stroke-dasharray="1,3" stroke-dashoffset="0" stroke-width="0.666667" stroke-linecap="butt" stroke-linejoin="round" transform="matrix(0.75,0,0,0.75,0,0)"
font-family="Helvetica" font-size="10" font-weight="400" font-style="normal" 
>
<polyline fill="none" vector-effect="none" points="189.125,576 189.125,335 " />
<polyline fill="none" vector-effect="none" points="221.957,576 221.957,335 " />
<polyline fill="none" vector-effect="none" points="245.251,576 245.251,335 " />
<polyline fill="none" vector-effect="none" points="263.319,576 263.319,335 " />
<polyline fill="none" vector-effect="none" points="278.082,576 278.082,335 " />
<polyline fill="none" vector-effect="none" points="290.564,576 290.564,335 " />
<polyline fill="none" vector-effect="none" points="301.376,576 301.376,335 " />
<polyline fill="none" vector-effect="none" points="310.913,576 310.913,335 " />
<polyline fill="none" vector-effect="none" points="375.57,576 375.57,335 " />
<polyline fill="none" vector-effect="none" points="408.401,576 408.401,335 " />
<polyline fill="none" vector-effect="none" points="431.695,576 431.695,335 " />
<polyline fill="none" vector-effect="none" points="449.764,576 449.764,335 " />
<polyline fill="none" vector-effect="none" points="464.526,576 464.526,335 " />
<polyline fill="none" vector-effect="none" points="477.008,576 477.008,335 " />
<polyline fill="none" vector-effect="none" points="487.821,576 487.821,335 " />
<polyline fill="none" vector-effect="none" points="497.358,576 497.358,335 " />
<polyline fill="none" vector-effect="none" points="562.014,576 562.014,335 " />
<polyline fill="none" vector-effect="none" points="594.845,576 594.845,335 " />
<polyline fill="none" vector-effect="none" points="618.14,576 618.14,335 " />
<polyline fill="none" vector-effect="none" points="636.208,576 636.208,335 " />
<polyline fill="none" vector-effect="none" points="650.971,576 650.971,335 " />
<polyline fill="none" vector-effect="none" points="663.453,576 663.453,335 " />
<polyline fill="none" vector-effect="none" points="674.265,576 674.265,335 " />
<polyline fill="none" vector-effect="none" points="683.802,576 683.802,335 " />
<polyline fill="none" vector-effect="none" points="748.459,576 748.459,335 " />
<polyline fill="none" vector-effect="none" points="781.29,576 781.29,335 " />
<polyline fill="none" vector-effect="none" points="804.584,576 804.584,335 " />
<polyline fill="none" vector-effect="none" points="822.652,576 822.652,335 " />
<polyline fill="none" vector-effect="none" points="837.415,576 837.415,335 " />
<polyline fill="none" vector-effect="none" points="849.897,576 849.897,335 " />
<polyline fill="none" vector-effect="none" points="860.709,576 860.709,335 " />
<polyline fill="none" vector-effect="none" points="870.247,576 870.247,335 " />
<polyline fill="none" vector-effect="none" points="934.903,576 934.903,335 " />
<polyline fill="none" vector-effect="none" points="967.734,576 967.734,335 " />
</g>

<g fill="#ffffff" fill-opacity="0.25098" stroke="#ffffff" stroke-opacity="0.25098" stroke-width="0.666667" stroke-linecap="butt" stroke-linejoin="round" transform="matrix(0.75,0,0,0.75,0,0)"
font-family="Helvetica" font-size="10" font-weight="400" font-style="normal" 
>
<polyline fill="none" vector-effect="none" points="133,576 133,335 " />
<polyline fill="none" vector-effect="none" points="319.444,576 319.444,335 " />
<polyline fill="none" vector-effect="none" points="505.889,576 505.889,335 " />
<polyline fill="none" vector-effect="none" points="692.333,576 692.333,335 " />
<polyline fill="none" vector-effect="none" points="878.778,576 878.778,335 " />
<polyline fill="none" vector-effect="none" points="972,576 133,576 " />
<polyline fill="none" vector-effect="none" points="972,515.75 133,515.75 " />
<polyline fill="none" vector-effect="none" points="972,455.5 133,455.5 " />
<polyline fill="none" vector-effect="none" points="972,395.25 133,395.25 " />
<polyline fill="none" vector-effect="none" points="972,335 133,335 " />
</g>

<g fill="#d9d9d9" fill-opacity="1" stroke="#d9d9d9" stroke-opacity="1" stroke-width="0.666667" stroke-linecap="square" stroke-linejoin="round" transform="matrix(0.75,0,0,0.75,0,0)"
font-family="Helvetica" font-size="10" font-weight="400" font-style="normal" 
>
<polyline fill="none" vector-effect="none" points="133,576 972,576 " />
<polyline fill="none" vector-effect="none" points="133,335 972,335 " />
<polyline fill="none" vector-effect="none" points="133,576 133,567.61 " />
<polyline fill="none" vector-effect="none" points="319.444,576 319.444,567.61 " />
<polyline fill="none" vector-effect="none" points="505.889,576 505.889,567.61 " />
<polyline fill="none" vector-effect="none" points="692.333,576 692.333,567.61 " />
<polyline fill="none" vector-effect="none" points="878.778,576 878.778,567.61 " />
<polyline fill="none" vector-effect="none" points="133,335 133,343.39 " />
<polyline fill="none" vector-effect="none" points="319.444,335 319.444,343.39 " />
<polyline fill="none" vector-effect="none" points="505.889,335 505.889,343.39 " />
<polyline fill="none" vector-effect="none" points="692.333,335 692.333,343.39 " />
<polyline fill="none" vector-effect="none" points="878.778,335 878.778,343.39 " />
<polyline fill="none" vector-effect="none" points="133,576 133,571.805 " />
<polyline fill="none" vector-effect="none" points="189.125,576 189.125,571.805 " />
<polyline fill="none" vector-effect="none" points="221.957,576 221.957,571.805 " />
<polyline fill="none" vector-effect="none" points="245.251,576 245.251,571.805 " />
<polyline fill="none" vector-effect="none" points="263.319,576 263.319,571.805 " />
<polyline fill="none" vector-effect="none" points="278.082,576 278.082,571.805 " />
<polyline fill="none" vector-effect="none" points="290.564,576 290.564,571.805 " />
<polyline fill="none" vector-effect="none" points="301.376,576 301.376,571.805 " />
<polyline fill="none" vector-effect="none" points="310.913,576 310.913,571.805 " />
<polyline fill="none" vector-effect="none" points="319.444,576 319.444,571.805 " />
<polyline fill="none" vector-effect="none" points="375.57,576 375.57,571.805 " />
<polyline fill="none" vector-effect="none" points="408.401,576 408.401,571.805 " />
<polyline fill="none" vector-effect="none" points="431.695,576 431.695,571.805 " />
<polyline fill="none" vector-effect="none" points="449.764,576 449.764,571.805 " />
<polyline fill="none" vector-effect="none" points="464.526,576 464.526,571.805 " />
<polyline fill="none" vector-effect="none" points="477.008,576 477.008,571.805 " />
<polyline fill="none" vector-effect="none" points="487.821,576 487.821,571.805 " />
<polyline fill="none" vector-effect="none" points="497.358,576 497.358,571.805 " />
<polyline fill="none" vector-effect="none" points="505.889,576 505.889,571.805 " />
<polyline fill="none" vector-effect="none" points="562.014,576 562.014,571.805 " />
<polyline fill="none" vector-effect="none" points="594.845,576 594.845,571.805 " />
<polyline fill="none" vector-effect="none" points="618.14,576 618.14,571.805 " />
<polyline fill="none" vector-effect="none" points="636.208,576 636.208,571.805 " />
<polyline fill="none" vector-effect="none" points="650.971,576 650.971,571.805 " />
<polyline fill="none" vector-effect="none" points="663.453,576 663.453,571.805 " />
<polyline fill="none" vector-effect="none" points="674.265,576 674.265,571.805 " />
<polyline fill="none" vector-effect="none" points="683.802,576 683.802,571.805 " />
<polyline fill="none" vector-effect="none" points="692.333,576 692.333,571.805 " />
<polyline fill="none" vector-effect="none" points="748.459,576 748.459,571.805 " />
<polyline fill="none" vector-effect="none" points="781.29,576 781.29,571.805 " />
<polyline fill="none" vector-effect="none" points="804.584,576 804.584,571.805 " />
<polyline fill="none" vector-effect="none" points="822.652,576 822.652,571.805 " />
<polyline fill="none" vector-effect="none" points="837.415,576 837.415,571.805 " />
<polyline fill="none" vector-effect="none" points="849.897,576 849.897,571.805 " />
<polyline fill="none" vector-effect="none" points="860.709,576 860.709,571.805 " />
<polyline fill="none" vector-effect="none" points="870.247,576 870.247,571.805 " />
<polyline fill="none" vector-effect="none" points="878.778,576 878.778,571.805 " />
<polyline fill="none" vector-effect="none" points="934.903,576 934.903,571.805 " />
<polyline fill="none" vector-effect="none" points="967.734,576 967.734,571.805 " />
<polyline fill="none" vector-effect="none" points="133,335 133,339.195 " />
<polyline fill="none" vector-effect="none" points="189.125,335 189.125,339.195 " />
<polyline fill="none" vector-effect="none" points="221.957,335 221.957,339.195 " />
<polyline fill="none" vector-effect="none" points="245.251,335 245.251,339.195 " />
<polyline fill="none" vector-effect="none" points="263.319,335 263.319,339.195 " />
<polyline fill="none" vector-effect="none" points="278.082,335 278.082,339.195 " />
<polyline fill="none" vector-effect="none" points="290.564,335 290.564,339.195 " />
<polyline fill="none" vector-effect="none" points="301.376,335 301.376,339.195 " />
<polyline fill="none" vector-effect="none" points="310.913,335 310.913,339.195 " />
<polyline fill="none" vector-effect="none" points="319.444,335 319.444,339.195 " />
<polyline fill="none" vector-effect="none" points="375.57,335 375.57,339.195 " />
<polyline fill="none" vector-effect="none" points="408.401,335 408.401,339.195 " />
<polyline fill="none" vector-effect="none" points="431.695,335 431.695,339.195 " />
<polyline fill="none" vector-effect="none" points="449.764,335 449.764,339.195 " />
<polyline fill="none" vector-effect="none" points="464.526,335 464.526,339.195 " />
<polyline fill="none" vector-effect="none" points="477.008,335 477.008,339.195 " />
<polyline fill="none" vector-effect="none" points="487.821,335 487.821,339.195 " />
<polyline fill="none" vector-effect="none" points="497.358,335 497.358,339.195 " />
<polyline fill="none" vector-effect="none" points="505.889,335 505.889,339.195 " />
<polyline fill="none" vector-effect="none" points="562.014,335 562.014,339.195 " />
<polyline fill="none" vector-effect="none" points="594.845,335 594.845,339.195 " />
<polyline fill="none" vector-effect="none" points="618.14,335 618.14,339.195 " />
<polyline fill="none" vector-effect="none" points="636.208,335 636.208,339.195 " />
<polyline fill="none" vector-effect="none" points="650.971,335 650.971,339.195 " />
<polyline fill="none" vector-effect="none" points="663.453,335 663.453,339.195 " />
<polyline fill="none" vector-effect="none" points="674.265,335 674.265,339.195 " />
<polyline fill="none" vector-effect="none" points="683.802,335 683.802,339.195 " />
<polyline fill="none" vector-effect="none" points="692.333,335 692.333,339.195 " />
<polyline fill="none" vector-effect="none" points="748.459,335 748.459,339.195 " />
<polyline fill="none" vector-effect="none" points="781.29,335 781.29,339.195 " />
<polyline fill="none" vector-effect="none" points="804.584,335 804.584,339.195 " />
<polyline fill="none" vector-effect="none" points="822.652,335 822.652,339.195 " />
<polyline fill="none" vector-effect="none" points="837.415,335 837.415,339.195 " />
<polyline fill="none" vector-effect="none" points="849.897,335 849.897,339.195 " />
<polyline fill="none" vector-effect="none" points="860.709,335 860.709,339.195 " />
<polyline fill="none" vector-effect="none" points="870.247,335 870.247,339.195 " />
<polyline fill="none" vector-effect="none" points="878.778,335 878.778,339.195 " />
<polyline fill="none" vector-effect="none" points="934.903,335 934.903,339.195 " />
<polyline fill="none" vector-effect="none" points="967.734,335 967.734,339.195 " />
</g>

<g fill="#d9d9d9" fill-opacity="1" stroke="#d9d9d9" stroke-opacity="1" stroke-width="1" stroke-linecap="square" stroke-linejoin="bevel" transform="matrix(0.75,0,0,0.75,93.75,442.5)"
font-family="Helvetica" font-size="10" font-weight="400" font-style="normal" 
>
<text fill="#d9d9d9" fill-opacity="1" stroke="none" xml:space="preserve" x="0" y="0" font-family="Helvetica" font-size="10" font-weight="400" font-style="normal" 
 >10</text>
</g>

<g fill="#d9d9d9" fill-opacity="1" stroke="#d9d9d9" stroke-opacity="1" stroke-width="1" stroke-linecap="square" stroke-linejoin="bevel" transform="matrix(0.75,0,0,0.75,102.75,438.75)"
font-family="Helvetica" font-size="8" font-weight="400" font-style="normal" 
>
<text fill="#d9d9d9" fill-opacity="1" stroke="none" xml:space="preserve" x="0" y="0" font-family="Helvetica" font-size="8" font-weight="400" font-style="normal" 
 >1</text>
</g>

<g fill="#d9d9d9" fill-opacity="1" stroke="#d9d9d9" stroke-opacity="1" stroke-width="1" stroke-linecap="square" stroke-linejoin="bevel" transform="matrix(0.75,0,0,0.75,233.25,442.5)"
font-family="Helvetica" font-size="10" font-weight="400" font-style="normal" 
>
<text fill="#d9d9d9" fill-opacity="1" stroke="none" xml:space="preserve" x="0" y="0" font-family="Helvetica" font-size="10" font-weight="400" font-style="normal" 
 >10</text>
</g>

<g fill="#d9d9d9" fill-opacity="1" stroke="#d9d9d9" stroke-opacity="1" stroke-width="1" stroke-linecap="square" stroke-linejoin="bevel" transform="matrix(0.75,0,0,0.75,242.25,438.75)"
font-family="Helvetica" font-size="8" font-weight="400" font-style="normal" 
>
<text fill="#d9d9d9" fill-opacity="1" stroke="none" xml:space="preserve" x="0" y="0" font-family="Helvetica" font-size="8" font-weight="400" font-style="normal" 
 >2</text>
</g>

<g fill="#d9d9d9" fill-opacity="1" stroke="#d9d9d9" stroke-opacity="1" stroke-width="1" stroke-linecap="square" stroke-linejoin="bevel" transform="matrix(0.75,0,0,0.75,373.5,442.5)"
font-family="Helvetica" font-size="10" font-weight="400" font-style="normal" 
>
<text fill="#d9d9d9" fill-opacity="1" stroke="none" xml:space="preserve" x="0" y="0" font-family="Helvetica" font-size="10" font-weight="400" font-style="normal" 
 >10</text>
</g>

<g fill="#d9d9d9" fill-opacity="1" stroke="#d9d9d9" stroke-opacity="1" stroke-width="1" stroke-linecap="square" stroke-linejoin="bevel" transform="matrix(0.75,0,0,0.75,382.5,438.75)"
font-family="Helvetica" font-size="8" font-weight="400" font-style="normal" 
>
<text fill="#d9d9d9" fill-opacity="1" stroke="none" xml:space="preserve" x="0" y="0" font-family="Helvetica" font-size="8" font-weight="400" font-style="normal" 
 >3</text>
</g>

<g fill="#d9d9d9" fill-opacity="1" stroke="#d9d9d9" stroke-opacity="1" stroke-width="1" stroke-linecap="square" stroke-linejoin="bevel" transform="matrix(0.75,0,0,0.75,513,442.5)"
font-family="Helvetica" font-size="10" font-weight="400" font-style="normal" 
>
<text fill="#d9d9d9" fill-opacity="1" stroke="none" xml:space="preserve" x="0" y="0" font-family="Helvetica" font-size="10" font-weight="400" font-style="normal" 
 >10</text>
</g>

<g fill="#d9d9d9" fill-opacity="1" stroke="#d9d9d9" stroke-opacity="1" stroke-width="1" stroke-linecap="square" stroke-linejoin="bevel" transform="matrix(0.75,0,0,0.75,522,438.75)"
font-family="Helvetica" font-size="8" font-weight="400" font-style="normal" 
>
<text fill="#d9d9d9" fill-opacity="1" stroke="none" xml:space="preserve" x="0" y="0" font-family="Helvetica" font-size="8" font-weight="400" font-style="normal" 
 >4</text>
</g>

<g fill="#d9d9d9" fill-opacity="1" stroke="#d9d9d9" stroke-opacity="1" stroke-width="1" stroke-linecap="square" stroke-linejoin="bevel" transform="matrix(0.75,0,0,0.75,653.25,442.5)"
font-family="Helvetica" font-size="10" font-weight="400" font-style="normal" 
>
<text fill="#d9d9d9" fill-opacity="1" stroke="none" xml:space="preserve" x="0" y="0" font-family="Helvetica" font-size="10" font-weight="400" font-style="normal" 
 >10</text>
</g>

<g fill="#d9d9d9" fill-opacity="1" stroke="#d9d9d9" stroke-opacity="1" stroke-width="1" stroke-linecap="square" stroke-linejoin="bevel" transform="matrix(0.75,0,0,0.75,662.25,438.75)"
font-family="Helvetica" font-size="8" font-weight="400" font-style="normal" 
>
<text fill="#d9d9d9" fill-opacity="1" stroke="none" xml:space="preserve" x="0" y="0" font-family="Helvetica" font-size="8" font-weight="400" font-style="normal" 
 >5</text>
</g>

<g fill="#d9d9d9" fill-opacity="1" stroke="#d9d9d9" stroke-opacity="1" stroke-width="0.666667" stroke-linecap="square" stroke-linejoin="round" transform="matrix(0.75,0,0,0.75,0,0)"
font-family="Helvetica" font-size="8" font-weight="400" font-style="normal" 
>
<polyline fill="none" vector-effect="none" points="133,576 133,335 " />
<polyline fill="none" vector-effect="none" points="972,576 972,335 " />
<polyline fill="none" vector-effect="none" points="133,576 141.39,576 " />
<polyline fill="none" vector-effect="none" points="133,515.75 141.39,515.75 " />
<polyline fill="none" vector-effect="none" points="133,455.5 141.39,455.5 " />
<polyline fill="none" vector-effect="none" points="133,395.25 141.39,395.25 " />
<polyline fill="none" vector-effect="none" points="133,335 141.39,335 " />
<polyline fill="none" vector-effect="none" points="972,576 963.61,576 " />
<polyline fill="none" vector-effect="none" points="972,515.75 963.61,515.75 " />
<polyline fill="none" vector-effect="none" points="972,455.5 963.61,455.5 " />
<polyline fill="none" vector-effect="none" points="972,395.25 963.61,395.25 " />
<polyline fill="none" vector-effect="none" points="972,335 963.61,335 " />
</g>

<g fill="#d9d9d9" fill-opacity="1" stroke="#d9d9d9" stroke-opacity="1" stroke-width="1" stroke-linecap="square" stroke-linejoin="bevel" transform="matrix(0.75,0,0,0.75,93.65,434.625)"
font-family="Helvetica" font-size="10" font-weight="400" font-style="normal" 
>
<text fill="#d9d9d9" fill-opacity="1" stroke="none" xml:space="preserve" x="0" y="0" font-family="Helvetica" font-size="10" font-weight="400" font-style="normal" 
 >0</text>
</g>

<g fill="#d9d9d9" fill-opacity="1" stroke="#d9d9d9" stroke-opacity="1" stroke-width="1" stroke-linecap="square" stroke-linejoin="bevel" transform="matrix(0.75,0,0,0.75,89.15,389.438)"
font-family="Helvetica" font-size="10" font-weight="400" font-style="normal" 
>
<text fill="#d9d9d9" fill-opacity="1" stroke="none" xml:space="preserve" x="0" y="0" font-family="Helvetica" font-size="10" font-weight="400" font-style="normal" 
 >45</text>
</g>

<g fill="#d9d9d9" fill-opacity="1" stroke="#d9d9d9" stroke-opacity="1" stroke-width="1" stroke-linecap="square" stroke-linejoin="bevel" transform="matrix(0.75,0,0,0.75,89.15,344.25)"
font-family="Helvetica" font-size="10" font-weight="400" font-style="normal" 
>
<text fill="#d9d9d9" fill-opacity="1" stroke="none" xml:space="preserve" x="0" y="0" font-family="Helvetica" font-size="10" font-weight="400" font-style="normal" 
 >90</text>
</g>

<g fill="#d9d9d9" fill-opacity="1" stroke="#d9d9d9" stroke-opacity="1" stroke-width="1" stroke-linecap="square" stroke-linejoin="bevel" transform="matrix(0.75,0,0,0.75,84.65,299.063)"
font-family="Helvetica" font-size="10" font-weight="400" font-style="normal" 
>
<text fill="#d9d9d9" fill-opacity="1" stroke="none" xml:space="preserve" x="0" y="0" font-family="Helvetica" font-size="10" font-weight="400" font-style="normal" 
 >135</text>
</g>

<g fill="#d9d9d9" fill-opacity="1" stroke="#d9d9d9" stroke-opacity="1" stroke-width="1" stroke-linecap="square" stroke-linejoin="bevel" transform="matrix(0.75,0,0,0.75,84.65,253.875)"
font-family="Helvetica" font-size="10" font-weight="400" font-style="normal" 
>
<text fill="#d9d9d9" fill-opacity="1" stroke="none" xml:space="preserve" x="0" y="0" font-family="Helvetica" font-size="10" font-weight="400" font-style="normal" 
 >180</text>
</g>

<g fill="#d9d9d9" fill-opacity="1" stroke="#d9d9d9" stroke-opacity="1" stroke-width="1" stroke-linecap="square" stroke-linejoin="bevel" transform="matrix(0,-0.75,0.75,0,82.15,363)"
font-family="Helvetica" font-size="10" font-weight="400" font-style="normal" 
>
<text fill="#d9d9d9" fill-opacity="1" stroke="none" xml:space="preserve" x="0" y="0" font-family="Helvetica" font-size="10" font-weight="400" font-style="normal" 
 >Phase (deg)</text>
</g>

<g fill="none" stroke="#268cdd" stroke-opacity="1" stroke-width="0.666667" stroke-linecap="butt" stroke-linejoin="round" transform="matrix(0.75,0,0,0.75,0,0)"
font-family="Helvetica" font-size="10" font-weight="400" font-style="normal" 
>
<polyline fill="none" vector-effect="none" points="133,335.994 245.251,337.17 257.921,337.538 270.592,337.968 283.262,338.471 295.933,339.059 308.603,339.748 321.274,340.553 333.945,341.496 346.615,342.6 359.286,343.892 371.956,345.407 384.627,347.183 397.297,349.268 409.968,351.719 422.638,354.604 435.309,358.01 447.979,362.04 460.65,366.827 473.32,372.535 485.991,379.371 498.662,387.584 511.332,397.454 524.003,409.242 536.673,423.071 549.344,438.727 562.014,455.5 574.685,472.273 587.355,487.929 600.026,501.758 612.696,513.546 625.367,523.416 638.037,531.629 650.708,538.465 663.379,544.173 676.049,548.96 688.72,552.99 701.39,556.396 714.061,559.281 726.731,561.732 739.402,563.817 752.072,565.593 764.743,567.108 777.413,568.4 790.084,569.504 802.755,570.447 815.425,571.252 828.096,571.941 840.766,572.529 853.437,573.032 866.107,573.462 878.778,573.83 972,574.806 " />
</g>

<g fill="none" stroke="#f57729" stroke-opacity="1" stroke-width="0.666667" stroke-linecap="butt" stroke-linejoin="round" transform="matrix(0.75,0,0,0.75,0,0)"
font-family="Helvetica" font-size="10" font-weight="400" font-style="normal" 
>
<polyline fill="none" vector-effect="none" points="133,335.913 250.402,337.106 263.073,337.463 275.743,337.881 288.414,338.369 301.084,338.94 313.755,339.609 326.425,340.391 339.096,341.306 351.766,342.378 364.437,343.633 377.107,345.105 389.778,346.831 402.448,348.858 415.119,351.242 427.79,354.052 440.46,357.372 453.131,361.307 465.801,365.992 478.472,371.594 491.142,378.33 503.813,386.466 516.483,396.311 529.154,408.168 541.824,422.207 554.495,438.236 567.165,455.5 579.836,472.764 592.507,488.793 605.177,502.832 617.848,514.689 630.518,524.534 643.189,532.67 655.859,539.406 668.53,545.008 681.2,549.693 693.871,553.628 706.541,556.948 719.212,559.758 731.883,562.142 744.553,564.169 757.224,565.895 769.894,567.367 782.565,568.622 795.235,569.694 807.906,570.609 820.576,571.391 833.247,572.06 845.917,572.631 858.588,573.119 871.258,573.537 883.929,573.894 972,574.789 " />
</g>

<g fill="#121212" fill-opacity="1" stroke="none" transform="matrix(7.5e-05,0,0,7.5e-05,0,0)"
font-family="Helvetica" font-size="10" font-weight="400" font-style="normal" 
>
<path vector-effect="none" fill-rule="evenodd" d="M8.7e+06,590000 L8.7e+06,920000 L9.61e+06,920000 L9.61e+06,590000 L8.7e+06,590000"/>
</g>

<g fill="#268cdd" fill-opacity="1" stroke="#268cdd" stroke-opacity="1" stroke-width="0.666667" stroke-linecap="butt" stroke-linejoin="round" transform="matrix(0.75,0,0,0.75,0,0)"
font-family="Helvetica" font-size="10" font-weight="400" font-style="normal" 
>
<polyline fill="none" vector-effect="none" points="874,68.1385 914,68.1385 " />
</g>

<g fill="#f57729" fill-opacity="1" stroke="#f57729" stroke-opacity="1" stroke-width="0.666667" stroke-linecap="butt" stroke-linejoin="round" transform="matrix(0.75,0,0,0.75,0,0)"
font-family="Helvetica" font-size="10" font-weight="400" font-style="normal" 
>
<polyline fill="none" vector-effect="none" points="874,82.8615 914,82.8615 " />
</g>

<g fill="#d9d9d9" fill-opacity="1" stroke="#d9d9d9" stroke-opacity="1" stroke-width="1" stroke-linecap="square" stroke-linejoin="bevel" transform="matrix(0.75,0,0,0.75,687.75,54.1038)"
font-family="Helvetica" font-size="12" font-weight="400" font-style="normal" 
>
<text fill="#d9d9d9" fill-opacity="1" stroke="none" xml:space="preserve" x="0" y="0" font-family="Helvetica" font-size="12" font-weight="400" font-style="normal" 
 >Teórico</text>
</g>

<g fill="#d9d9d9" fill-opacity="1" stroke="#d9d9d9" stroke-opacity="1" stroke-width="1" stroke-linecap="square" stroke-linejoin="bevel" transform="matrix(0.75,0,0,0.75,687.75,65.1462)"
font-family="Helvetica" font-size="12" font-weight="400" font-style="normal" 
>
<text fill="#d9d9d9" fill-opacity="1" stroke="none" xml:space="preserve" x="0" y="0" font-family="Helvetica" font-size="12" font-weight="400" font-style="normal" 
 >Real</text>
</g>

<g fill="none" stroke="#d9d9d9" stroke-opacity="1" stroke-width="0.666667" stroke-linecap="butt" stroke-linejoin="miter" stroke-miterlimit="5" transform="matrix(0.75,0,0,0.75,0,0)"
font-family="Helvetica" font-size="12" font-weight="400" font-style="normal" 
>
<path vector-effect="none" fill-rule="evenodd" d="M870,92 L870,59 L961,59 L961,92 L870,92"/>
</g>
</g>
</svg>
